<svg viewBox="0 0 1200 500" xmlns="http://www.w3.org/2000/svg">
  <!-- Background -->
  <rect width="1200" height="500" fill="#f8f9fa"/>
  
  <!-- Arrow marker definition with open tip -->
  <defs>
    <marker id="arrowhead" markerWidth="10" markerHeight="7" refX="9" refY="3.5" orient="auto">
      <path d="M 0 0 L 10 3.5 L 0 7" fill="none" stroke="#232d53" stroke-width="1"/>
    </marker>
  </defs>
  
  <!-- MUSIC APP -->
  <!-- Main enclosing circle -->
  <circle cx="200" cy="200" r="120" fill="none" stroke="#232d53" stroke-width="2"/>
  
  <!-- Username Icon - Simple person icon -->
  <circle cx="140" cy="150" r="8" fill="none" stroke="#232d53" stroke-width="2"/>
  <path d="M 128 170 Q 128 160 140 160 Q 152 160 152 170 L 150 170 Q 150 163 140 163 Q 130 163 130 170 Z" fill="none" stroke="#232d53" stroke-width="2"/>
  
  <!-- Identity Label -->
  <text x="140" y="190" text-anchor="middle" font-family="Arial, sans-serif" font-size="12" font-weight="bold" fill="#232d53">Your Identity</text>
  
  <!-- Data Icon - Vertical cylindrical hard disk -->
  <ellipse cx="250" cy="145" rx="12" ry="4" fill="none" stroke="#232d53" stroke-width="2"/>
  <line x1="238" y1="145" x2="238" y2="165" stroke="#232d53" stroke-width="2"/>
  <line x1="262" y1="145" x2="262" y2="165" stroke="#232d53" stroke-width="2"/>
  <path d="M 238 165 A 12 4 0 0 0 262 165" fill="none" stroke="#232d53" stroke-width="2"/>
  <path d="M 240 155 A 10 3 0 0 0 260 155" fill="none" stroke="#232d53" stroke-width="1"/>
  
  <!-- Data Label -->
  <text x="250" y="185" text-anchor="middle" font-family="Arial, sans-serif" font-size="12" font-weight="bold" fill="#232d53">Your Data</text>
  
  <!-- User Interface Icon - Simple phone screen (vertical) -->
  <rect x="190" y="225" width="20" height="35" fill="none" stroke="#232d53" stroke-width="2" rx="3"/>
  <rect x="192" y="228" width="16" height="24" fill="none" stroke="#232d53" stroke-width="1"/>
  <line x1="194" y1="234" x2="206" y2="234" stroke="#232d53" stroke-width="1"/>
  <line x1="194" y1="237" x2="204" y2="237" stroke="#232d53" stroke-width="1"/>
  <line x1="194" y1="240" x2="208" y2="240" stroke="#232d53" stroke-width="1"/>
  <line x1="194" y1="243" x2="202" y2="243" stroke="#232d53" stroke-width="1"/>
  
  <!-- UI Label -->
  <text x="200" y="275" text-anchor="middle" font-family="Arial, sans-serif" font-size="12" font-weight="bold" fill="#232d53">User Interface</text>
  
  <!-- Arrows -->
  <path d="M 185 240 Q 165 215 145 195" fill="none" stroke="#232d53" stroke-width="2" marker-end="url(#arrowhead)"/>
  <path d="M 215 240 Q 230 215 245 190" fill="none" stroke="#232d53" stroke-width="2" marker-end="url(#arrowhead)"/>
  
  <!-- Music App Label -->
  <text x="200" y="350" text-anchor="middle" font-family="Arial, sans-serif" font-size="18" font-weight="bold" fill="#232d53">Music App</text>
  
  <!-- SOCIAL APP -->
  <!-- Main enclosing circle -->
  <circle cx="600" cy="200" r="120" fill="none" stroke="#232d53" stroke-width="2"/>
  
  <!-- Username Icon - Simple person icon -->
  <circle cx="540" cy="150" r="8" fill="none" stroke="#232d53" stroke-width="2"/>
  <path d="M 528 170 Q 528 160 540 160 Q 552 160 552 170 L 550 170 Q 550 163 540 163 Q 530 163 530 170 Z" fill="none" stroke="#232d53" stroke-width="2"/>
  
  <!-- Identity Label -->
  <text x="540" y="190" text-anchor="middle" font-family="Arial, sans-serif" font-size="12" font-weight="bold" fill="#232d53">Your Identity</text>
  
  <!-- Data Icon - Vertical cylindrical hard disk -->
  <ellipse cx="650" cy="145" rx="12" ry="4" fill="none" stroke="#232d53" stroke-width="2"/>
  <line x1="638" y1="145" x2="638" y2="165" stroke="#232d53" stroke-width="2"/>
  <line x1="662" y1="145" x2="662" y2="165" stroke="#232d53" stroke-width="2"/>
  <path d="M 638 165 A 12 4 0 0 0 662 165" fill="none" stroke="#232d53" stroke-width="2"/>
  <path d="M 640 155 A 10 3 0 0 0 660 155" fill="none" stroke="#232d53" stroke-width="1"/>
  
  <!-- Data Label -->
  <text x="650" y="185" text-anchor="middle" font-family="Arial, sans-serif" font-size="12" font-weight="bold" fill="#232d53">Your Data</text>
  
  <!-- User Interface Icon - Simple computer screen (horizontal) -->
  <rect x="580" y="235" width="40" height="25" fill="none" stroke="#232d53" stroke-width="2" rx="2"/>
  <rect x="583" y="238" width="34" height="16" fill="none" stroke="#232d53" stroke-width="1"/>
  <line x1="585" y1="245" x2="605" y2="245" stroke="#232d53" stroke-width="1"/>
  <line x1="585" y1="248" x2="600" y2="248" stroke="#232d53" stroke-width="1"/>
  <line x1="585" y1="251" x2="610" y2="251" stroke="#232d53" stroke-width="1"/>
  
  <!-- UI Label -->
  <text x="600" y="275" text-anchor="middle" font-family="Arial, sans-serif" font-size="12" font-weight="bold" fill="#232d53">User Interface</text>
  
  <!-- Arrows -->
  <path d="M 585 240 Q 565 215 545 195" fill="none" stroke="#232d53" stroke-width="2" marker-end="url(#arrowhead)"/>
  <path d="M 615 240 Q 630 215 645 190" fill="none" stroke="#232d53" stroke-width="2" marker-end="url(#arrowhead)"/>
  
  <!-- Social App Label -->
  <text x="600" y="350" text-anchor="middle" font-family="Arial, sans-serif" font-size="18" font-weight="bold" fill="#232d53">Social App</text>
  
  <!-- PODCAST APP -->
  <!-- Main enclosing circle -->
  <circle cx="1000" cy="200" r="120" fill="none" stroke="#232d53" stroke-width="2"/>
  
  <!-- Username Icon - Simple person icon -->
  <circle cx="940" cy="150" r="8" fill="none" stroke="#232d53" stroke-width="2"/>
  <path d="M 928 170 Q 928 160 940 160 Q 952 160 952 170 L 950 170 Q 950 163 940 163 Q 930 163 930 170 Z" fill="none" stroke="#232d53" stroke-width="2"/>
  
  <!-- Identity Label -->
  <text x="940" y="190" text-anchor="middle" font-family="Arial, sans-serif" font-size="12" font-weight="bold" fill="#232d53">Your Identity</text>
  
  <!-- Data Icon - Vertical cylindrical hard disk -->
  <ellipse cx="1050" cy="145" rx="12" ry="4" fill="none" stroke="#232d53" stroke-width="2"/>
  <line x1="1038" y1="145" x2="1038" y2="165" stroke="#232d53" stroke-width="2"/>
  <line x1="1062" y1="145" x2="1062" y2="165" stroke="#232d53" stroke-width="2"/>
  <path d="M 1038 165 A 12 4 0 0 0 1062 165" fill="none" stroke="#232d53" stroke-width="2"/>
  <path d="M 1040 155 A 10 3 0 0 0 1060 155" fill="none" stroke="#232d53" stroke-width="1"/>
  
  <!-- Data Label -->
  <text x="1050" y="185" text-anchor="middle" font-family="Arial, sans-serif" font-size="12" font-weight="bold" fill="#232d53">Your Data</text>
  
  <!-- User Interface Icon - Simple phone screen (vertical) -->
  <rect x="990" y="225" width="20" height="35" fill="none" stroke="#232d53" stroke-width="2" rx="3"/>
  <rect x="992" y="228" width="16" height="24" fill="none" stroke="#232d53" stroke-width="1"/>
  <line x1="994" y1="234" x2="1006" y2="234" stroke="#232d53" stroke-width="1"/>
  <line x1="994" y1="237" x2="1004" y2="237" stroke="#232d53" stroke-width="1"/>
  <line x1="994" y1="240" x2="1008" y2="240" stroke="#232d53" stroke-width="1"/>
  <line x1="994" y1="243" x2="1002" y2="243" stroke="#232d53" stroke-width="1"/>
  
  <!-- UI Label -->
  <text x="1000" y="275" text-anchor="middle" font-family="Arial, sans-serif" font-size="12" font-weight="bold" fill="#232d53">User Interface</text>
  
  <!-- Arrows -->
  <path d="M 985 240 Q 965 215 945 195" fill="none" stroke="#232d53" stroke-width="2" marker-end="url(#arrowhead)"/>
  <path d="M 1015 240 Q 1030 215 1045 190" fill="none" stroke="#232d53" stroke-width="2" marker-end="url(#arrowhead)"/>
  
  <!-- Podcast App Label -->
  <text x="1000" y="350" text-anchor="middle" font-family="Arial, sans-serif" font-size="18" font-weight="bold" fill="#232d53">Podcast App</text>
</svg>