<svg viewBox="0 0 1200 500" xmlns="http://www.w3.org/2000/svg">
  <!-- Background -->
  <rect width="1200" height="500" fill="#f8f9fa"/>
  
  <!-- Top section - Identity and Data owned by user -->
  <!-- Oval surrounding Identity and Data -->
  <ellipse cx="520" cy="150" rx="220" ry="100" fill="none" stroke="#232d53" stroke-width="2"/>
  
  <!-- Identity Icon -->
  <circle cx="430" cy="125" r="16" fill="none" stroke="#232d53" stroke-width="2"/>
  <path d="M 410 158 Q 410 141 430 141 Q 450 141 450 158 L 448 158 Q 448 143 430 143 Q 412 143 412 158 Z" fill="none" stroke="#232d53" stroke-width="2"/>
  
  <!-- Identity Label -->
  <text x="430" y="195" text-anchor="middle" font-family="Arial, sans-serif" font-size="22" font-weight="bold" fill="#232d53">Your Identity</text>
  
  <!-- Data Icon -->
  <ellipse cx="610" cy="125" rx="20" ry="8" fill="none" stroke="#232d53" stroke-width="2"/>
  <line x1="590" y1="125" x2="590" y2="153" stroke="#232d53" stroke-width="2"/>
  <line x1="630" y1="125" x2="630" y2="153" stroke="#232d53" stroke-width="2"/>
  <path d="M 590 153 A 20 8 0 0 0 630 153" fill="none" stroke="#232d53" stroke-width="2"/>
  <path d="M 592 138 A 18 7 0 0 0 628 138" fill="none" stroke="#232d53" stroke-width="1"/>
  
  <!-- Data Label -->
  <text x="610" y="195" text-anchor="middle" font-family="Arial, sans-serif" font-size="22" font-weight="bold" fill="#232d53">Your Data</text>
  
  <!-- Caption for top section -->
  <text x="760" y="130" text-anchor="left" font-family="Arial, sans-serif" font-size="32" fill="#232d53">Owned and</text>
  <text x="760" y="175" text-anchor="left" font-family="Arial, sans-serif" font-size="32" fill="#232d53">controlled by you</text>
  
  <!-- Bottom section - Three User Interface apps -->
  
  <!-- Music App (vertical phone) -->
  <rect x="329" y="340" width="28" height="50" fill="none" stroke="#232d53" stroke-width="2" rx="5"/>
  <rect x="333" y="345" width="20" height="33" fill="none" stroke="#232d53" stroke-width="1"/>
  <line x1="337" y1="353" x2="352" y2="353" stroke="#232d53" stroke-width="1"/>
  <line x1="337" y1="358" x2="347" y2="358" stroke="#232d53" stroke-width="1"/>
  <line x1="337" y1="363" x2="354" y2="363" stroke="#232d53" stroke-width="1"/>
  <line x1="337" y1="368" x2="345" y2="368" stroke="#232d53" stroke-width="1"/>
  
  <!-- Music App Label -->
  <text x="343" y="415" text-anchor="middle" font-family="Arial, sans-serif" font-size="18" font-weight="bold" fill="#232d53">Music App</text>
  
  <!-- Social App (horizontal computer) -->
  <rect x="492" y="350" width="56" height="36" fill="none" stroke="#232d53" stroke-width="2" rx="4"/>
  <rect x="497" y="355" width="46" height="23" fill="none" stroke="#232d53" stroke-width="1"/>
  <line x1="501" y1="364" x2="530" y2="364" stroke="#232d53" stroke-width="1"/>
  <line x1="501" y1="369" x2="522" y2="369" stroke="#232d53" stroke-width="1"/>
  <line x1="501" y1="374" x2="533" y2="374" stroke="#232d53" stroke-width="1"/>
  
  <!-- Social App Label -->
  <text x="520" y="415" text-anchor="middle" font-family="Arial, sans-serif" font-size="18" font-weight="bold" fill="#232d53">Social App</text>
  
  <!-- Podcast App (vertical phone) -->
  <rect x="726" y="340" width="28" height="50" fill="none" stroke="#232d53" stroke-width="2" rx="5"/>
  <rect x="730" y="345" width="20" height="33" fill="none" stroke="#232d53" stroke-width="1"/>
  <line x1="734" y1="353" x2="749" y2="353" stroke="#232d53" stroke-width="1"/>
  <line x1="734" y1="358" x2="744" y2="358" stroke="#232d53" stroke-width="1"/>
  <line x1="734" y1="363" x2="751" y2="363" stroke="#232d53" stroke-width="1"/>
  <line x1="734" y1="368" x2="742" y2="368" stroke="#232d53" stroke-width="1"/>
  
  <!-- Podcast App Label -->
  <text x="740" y="415" text-anchor="middle" font-family="Arial, sans-serif" font-size="18" font-weight="bold" fill="#232d53">Podcast App</text>
  
  <!-- Arrows from apps to oval -->
  <!-- Arrow from Music App to oval -->
  <line x1="343" y1="330" x2="380" y2="250" stroke="#232d53" stroke-width="2" marker-end="url(#arrowhead)"/>
  
  <!-- Arrow from Social App to oval -->
  <line x1="520" y1="340" x2="520" y2="260" stroke="#232d53" stroke-width="2" marker-end="url(#arrowhead)"/>
  
  <!-- Arrow from Podcast App to oval -->
  <line x1="740" y1="330" x2="680" y2="250" stroke="#232d53" stroke-width="2" marker-end="url(#arrowhead)"/>
  
  <!-- Arrow marker definition -->
  <defs>
    <marker id="arrowhead" markerWidth="10" markerHeight="7" refX="9" refY="3.5" orient="auto">
      <path d="M 0 0 L 10 3.5 L 0 7" fill="none" stroke="#232d53" stroke-width="1"/>
    </marker>
  </defs>
</svg>